<svg width="19" height="18" viewBox="0 0 19 18" fill="none" xmlns="http://www.w3.org/2000/svg">
<path d="M9.575 16.5C8.525 16.5 7.54062 16.3 6.62187 15.9C5.70312 15.5 4.90312 14.9594 4.22187 14.2781C3.54062 13.5969 3 12.7969 2.6 11.8781C2.2 10.9594 2 9.975 2 8.925C2 7.1 2.58125 5.49062 3.74375 4.09687C4.90625 2.70312 6.3875 1.8375 8.1875 1.5C7.9625 2.7375 8.03125 3.94687 8.39375 5.12812C8.75625 6.30937 9.38125 7.34375 10.2687 8.23125C11.1562 9.11875 12.1906 9.74375 13.3719 10.1062C14.5531 10.4687 15.7625 10.5375 17 10.3125C16.675 12.1125 15.8125 13.5937 14.4125 14.7562C13.0125 15.9187 11.4 16.5 9.575 16.5ZM9.41539 9.28125C10.5154 9.28125 11.6937 14.725 12.6312 14.175C11.5002 14.8385 5.04659 14.2256 5.58409 13.2631C4.50909 13.1631 10.7946 10.6329 11.7875 11.0906C10.825 10.6469 6.34659 14.0256 5.58409 13.2631C4.82159 12.5006 7.83125 7.65625 7.38125 6.69375C7.85354 7.70393 5.67159 14.3381 5.58409 13.2631C4.62159 13.8006 4.63672 7.57894 5.1104 7.10525C5.58409 6.15789 9.41539 8.18125 9.41539 9.28125C9.37356 8.05262 8.23414 8.1 9.41539 9.28125C10.5966 10.4625 7.72789 9.28125 9.41539 9.28125Z" fill="#687EFF"/>
</svg>
